<?xml version="1.0" encoding="utf-8"?>
<!-- Generator: Adobe Illustrator 26.3.1, SVG Export Plug-In . SVG Version: 6.00 Build 0)  -->
<svg version="1.1" xmlns="http://www.w3.org/2000/svg" xmlns:xlink="http://www.w3.org/1999/xlink" x="0px" y="0px"
	 viewBox="0 0 45 45" style="enable-background:new 0 0 45 45;" xml:space="preserve">
<style type="text/css">
	.st0{fill:#FFFFFF;}
</style>
<g id="Guides">
</g>
<g id="ICONS">
</g>
<g id="Menu_Sidebar">
	<g transform="translate(0,-992.3622)">
		<path class="st0" d="M21.175,1005.362l-0.662,2.307c-0.6,0.165-1.172,0.407-1.701,0.708l-2.09-1.165l-1.873,1.873l1.165,2.09
			c-0.301,0.529-0.543,1.101-0.708,1.701L13,1013.538v2.649l2.306,0.662c0.165,0.6,0.407,1.172,0.708,1.701l-1.165,2.09l1.873,1.873
			l2.09-1.165c0.529,0.301,1.101,0.543,1.701,0.708l0.662,2.307h2.649l0.662-2.307c0.6-0.165,1.172-0.407,1.701-0.708l2.09,1.165
			l1.873-1.873l-1.165-2.09c0.301-0.529,0.543-1.101,0.708-1.701l2.306-0.662v-2.649l-2.306-0.662
			c-0.165-0.6-0.407-1.172-0.708-1.701l1.165-2.09l-1.873-1.873l-2.09,1.165c-0.529-0.301-1.101-0.543-1.701-0.708l-0.662-2.307
			H21.175z M22.512,1011.627c1.785,0,3.232,1.447,3.232,3.232s-1.447,3.232-3.232,3.232s-3.232-1.447-3.232-3.232
			S20.727,1011.627,22.512,1011.627z"/>
	</g>
</g>
</svg>
